<?xml version="1.0" encoding="iso-8859-1"?>
<!-- Generator: Adobe Illustrator 19.0.0, SVG Export Plug-In . SVG Version: 6.00 Build 0)  -->
<svg version="1.1" id="Layer_1" xmlns="http://www.w3.org/2000/svg" xmlns:xlink="http://www.w3.org/1999/xlink" x="0px" y="0px"
	 viewBox="0 0 496.004 496.004" style="enable-background:new 0 0 496.004 496.004;" xml:space="preserve">
<g>
	<g>
		<path d="M312.708,191.086l-79.276-54.256c-3.756-2.584-7.544-3.884-11.04-3.884c-7.924,0-13.144,6.508-13.144,16.588v114.08
			c0,10.076,5.22,16.588,13.136,16.588c3.496,0,7.24-1.308,10.996-3.884l79.3-54.252c5.776-3.956,9.104-9.592,9.104-15.484
			C321.784,200.694,318.484,195.046,312.708,191.086z"/>
	</g>
</g>
<g>
	<g>
		<path d="M496,119.514c0-25.348-20.54-45.888-45.884-45.888H45.884C20.54,73.626,0,94.166,0,119.514V376.49
			c0,25.348,20.54,45.888,45.884,45.888H450.12c25.344,0,45.884-20.54,45.884-45.888V119.514H496z M457.392,375.878H131.024
			c-2.82,15.5-14.456,22.904-28.356,22.904c-13.9,0-25.54-7.404-28.356-22.904H38.884c-4.28,0-7.752-3.472-7.752-7.752
			c0-4.28,3.468-7.752,7.752-7.752h36.352c3.912-11.624,14.72-19.64,27.432-19.64c12.712,0,23.52,8.016,27.432,19.64h327.292
			c4.28,0,7.752,3.468,7.752,7.752C465.14,372.406,461.672,375.878,457.392,375.878z M480.5,321.626h-465V120.83
			c0-16.752,13.84-31.704,30.596-31.704h404.232c16.752,0,30.172,14.952,30.172,31.704V321.626z"/>
	</g>
</g>
<g>
</g>
<g>
</g>
<g>
</g>
<g>
</g>
<g>
</g>
<g>
</g>
<g>
</g>
<g>
</g>
<g>
</g>
<g>
</g>
<g>
</g>
<g>
</g>
<g>
</g>
<g>
</g>
<g>
</g>
</svg>
