<svg width="20" height="20" xmlns="http://www.w3.org/2000/svg">

 <g>
  <title>background</title>
  <rect fill="none" id="canvas_background" height="402" width="582" y="-1" x="-1"/>
 </g>
 <g>
  <title>Layer 1</title>
  <g id="layer1">
   <path id="svg_1" fill="#f5f5f5" d="m9,0.800797l0,1.10547l-0.29297,0.06445l-0.41797,0.13281l-0.40234,0.16602l-0.38672,0.20117l-0.36914,0.23438l-0.3457,0.26562l-0.32227,0.29297l-0.29297,0.32422l-0.26758,0.3457l-0.23242,0.36719l-0.20117,0.38672l-0.16797,0.40234l-0.13281,0.41602l-0.09375,0.42578l-0.05664,0.43359l-0.01758,0.43555l-0.01953,0.75977l-0.05664,0.75976l-0.09766,0.75586l-0.13476,0.74805l-0.17188,0.74219l-0.21094,0.73242l-0.24609,0.71875l-0.28125,0.70703l-0.31836,0.6914l-0.35351,0.67383l-0.38672,0.6543l-0.41993,0.63672l-0.45117,0.61328l-0.06836,0.12109l-0.0332,0.13477l0.00391,0.13672l0.04492,0.13476l0.07812,0.11524l0.10547,0.08789l0.12696,0.05664l0.13867,0.01953l4.92383,0l0.125,0.30273l0.1621,0.29297l0.19532,0.27344l0.22461,0.25195l0.25195,0.22461l0.27344,0.19532l0.29297,0.16015l0.3125,0.13086l0.32226,0.09375l0.33203,0.05469l0.33594,0.01953l0.33594,-0.01953l0.33203,-0.05469l0.32422,-0.09375l0.31054,-0.13086l0.29297,-0.16015l0.27539,-0.19532l0.25,-0.22461l0.22461,-0.25195l0.19532,-0.27344l0.16211,-0.29297l0.125,-0.30273l4.92382,0l0.13868,-0.01953l0.12695,-0.05664l0.10742,-0.08789l0.07813,-0.11524l0.04296,-0.13476l0.00391,-0.13672l-0.0332,-0.13477l-0.07032,-0.12109l-0.44921,-0.61328l-0.41993,-0.63672l-0.38671,-0.6543l-0.35157,-0.67383l-0.32031,-0.6914l-0.28125,-0.70703l-0.24609,-0.71875l-0.21094,-0.73242l-0.17383,-0.74219l-0.13281,-0.74805l-0.09766,-0.75586l-0.05664,-0.75976l-0.01953,-0.75977l-0.01953,-0.43555l-0.05664,-0.43359l-0.09375,-0.42578l-0.13086,-0.41602l-0.16797,-0.40234l-0.20117,-0.38672l-0.23438,-0.36719l-0.26562,-0.3457l-0.29492,-0.32422l-0.32032,-0.29297l-0.34765,-0.26562l-0.36914,-0.23438l-0.38672,-0.20117l-0.40235,-0.16602l-0.41406,-0.13281l-0.29492,-0.06445l0,-1.10547l-2,0zm1,2l0.39258,0.01953l0.38867,0.0586l0.38086,0.0957l0.36914,0.13086l0.35352,0.16797l0.33789,0.20117l0.3164,0.23437l0.29102,0.26368l0.26172,0.29101l0.23437,0.31445l0.20313,0.33594l0.16601,0.35547l0.13282,0.37109l0.0957,0.37891l0.05664,0.38867l0.01953,0.39258l0.01758,0.73438l0.05078,0.73437l0.08398,0.73047l0.11719,0.72461l0.15039,0.7207l0.18555,0.71094l0.2168,0.70312l0.24804,0.69141l0.2793,0.67969l0.31055,0.66601l0.34179,0.65235l0.36914,0.63476l0.40039,0.61719l-13.54296,0l0.39843,-0.61719l0.3711,-0.63476l0.34179,-0.65235l0.31055,-0.66601l0.2793,-0.67969l0.25,-0.69141l0.21484,-0.70312l0.1836,-0.71094l0.15234,-0.7207l0.11914,-0.72461l0.08203,-0.73047l0.05274,-0.73437l0.01562,-0.73438l0.01953,-0.39258l0.0586,-0.38867l0.09375,-0.37891l0.13281,-0.37109l0.16601,-0.35547l0.20313,-0.33594l0.23437,-0.31445l0.26368,-0.29101l0.29101,-0.26368l0.31445,-0.23437l0.33594,-0.20117l0.35547,-0.16797l0.37109,-0.13086l0.37891,-0.0957l0.38867,-0.0586l0.39258,-0.01953zm-1.72852,14l3.45704,0l-0.01954,0.03906l-0.15625,0.22266l-0.1875,0.20117l-0.21289,0.17188l-0.23242,0.14062l-0.25,0.10938l-0.26172,0.07421l-0.27148,0.03711l-0.27344,0l-0.26953,-0.03711l-0.26172,-0.07421l-0.25195,-0.10938l-0.23242,-0.14062l-0.21094,-0.17188l-0.1875,-0.20117l-0.1582,-0.22266l-0.01954,-0.03906z"/>
  </g>
 </g>
</svg>