<?xml version="1.0" encoding="UTF-8" standalone="no" ?>
<!DOCTYPE svg PUBLIC "-//W3C//DTD SVG 1.1//EN" "http://www.w3.org/Graphics/SVG/1.1/DTD/svg11.dtd">
<svg xmlns="http://www.w3.org/2000/svg" xmlns:xlink="http://www.w3.org/1999/xlink" version="1.1" width="500" height="500" viewBox="0 0 500 500" xml:space="preserve">
<desc>Created with Fabric.js 4.6.0</desc>
<defs>
</defs>
<g transform="matrix(1 0 0 1 243.98 243.97)" id="Rg-wm-Mh48jB-mUgrd74b"  >
<path style="stroke: none; stroke-width: 1; stroke-dasharray: none; stroke-linecap: butt; stroke-dashoffset: 0; stroke-linejoin: miter; stroke-miterlimit: 4; fill: rgb(245,245,245); fill-rule: nonzero; opacity: 1;" vector-effect="non-scaling-stroke"  transform=" translate(-243.98, -243.97)" d="M 481.8 453 L 341.8 312.9 C 369.40000000000003 279.79999999999995 386 237.49999999999997 386 191.29999999999998 C 386 85.9 299.5 0.2 193.1 0.2 C 86.69999999999999 0.2 0 86 0 191.4 C 0 296.8 86.5 382.5 192.9 382.5 C 238.10000000000002 382.5 279.7 367 312.7 341.1 L 453.2 481.6 C 461.4 489.8 473.59999999999997 489.8 481.8 481.6 C 490 473.4 490 461.2 481.8 453 z M 41 191.4 C 41 108.60000000000001 109.2 41.30000000000001 192.9 41.30000000000001 C 276.6 41.30000000000001 344.8 108.60000000000001 344.8 191.4 C 344.8 274.2 276.6 341.5 192.9 341.5 C 109.19999999999999 341.5 41 274.1 41 191.4 z" stroke-linecap="round" />
</g>
</svg>